<mxfile host="app.diagrams.net" agent="Mozilla/5.0 (Windows NT 10.0; Win64; x64) AppleWebKit/537.36 (KHTML, like Gecko) Chrome/129.0.0.0 Safari/537.36 Edg/129.0.0.0" version="24.7.17">
  <diagram name="第 1 页" id="qOkNQ7u5OS_KklhIWbuo">
    <mxGraphModel dx="1284" dy="706" grid="1" gridSize="10" guides="1" tooltips="1" connect="1" arrows="1" fold="1" page="1" pageScale="1" pageWidth="827" pageHeight="1169" math="0" shadow="0">
      <root>
        <mxCell id="0" />
        <mxCell id="1" parent="0" />
        <mxCell id="xXuklR_XLr2c3fxrAw7_-1" value="Actor" style="shape=umlActor;verticalLabelPosition=bottom;verticalAlign=top;html=1;outlineConnect=0;" vertex="1" parent="1">
          <mxGeometry x="90" y="120" width="30" height="60" as="geometry" />
        </mxCell>
        <mxCell id="xXuklR_XLr2c3fxrAw7_-10" style="edgeStyle=orthogonalEdgeStyle;rounded=0;orthogonalLoop=1;jettySize=auto;html=1;entryX=0;entryY=0.5;entryDx=0;entryDy=0;" edge="1" parent="1" source="xXuklR_XLr2c3fxrAw7_-2" target="xXuklR_XLr2c3fxrAw7_-9">
          <mxGeometry relative="1" as="geometry" />
        </mxCell>
        <mxCell id="xXuklR_XLr2c3fxrAw7_-11" value="&lt;span style=&quot;font-size: 16px; text-wrap: wrap; background-color: rgb(251, 251, 251);&quot;&gt;输入诉求&lt;/span&gt;&lt;div style=&quot;font-size: 16px; text-wrap: wrap; background-color: rgb(251, 251, 251);&quot;&gt;输入原始数据&lt;/div&gt;" style="edgeLabel;html=1;align=center;verticalAlign=middle;resizable=0;points=[];horizontal=1;textDirection=ltr;" vertex="1" connectable="0" parent="xXuklR_XLr2c3fxrAw7_-10">
          <mxGeometry x="-0.1777" y="-2" relative="1" as="geometry">
            <mxPoint as="offset" />
          </mxGeometry>
        </mxCell>
        <mxCell id="xXuklR_XLr2c3fxrAw7_-2" value="Actor" style="shape=umlActor;verticalLabelPosition=bottom;verticalAlign=top;html=1;outlineConnect=0;" vertex="1" parent="1">
          <mxGeometry x="90" y="210" width="30" height="60" as="geometry" />
        </mxCell>
        <mxCell id="xXuklR_XLr2c3fxrAw7_-3" value="Actor" style="shape=umlActor;verticalLabelPosition=bottom;verticalAlign=top;html=1;outlineConnect=0;" vertex="1" parent="1">
          <mxGeometry x="90" y="310" width="30" height="60" as="geometry" />
        </mxCell>
        <mxCell id="xXuklR_XLr2c3fxrAw7_-14" style="edgeStyle=orthogonalEdgeStyle;rounded=0;orthogonalLoop=1;jettySize=auto;html=1;" edge="1" parent="1" source="xXuklR_XLr2c3fxrAw7_-9" target="xXuklR_XLr2c3fxrAw7_-12">
          <mxGeometry relative="1" as="geometry" />
        </mxCell>
        <mxCell id="xXuklR_XLr2c3fxrAw7_-15" value="1.保存记录到数据库" style="edgeLabel;html=1;align=center;verticalAlign=middle;resizable=0;points=[];fontSize=14;" vertex="1" connectable="0" parent="xXuklR_XLr2c3fxrAw7_-14">
          <mxGeometry x="0.1986" y="1" relative="1" as="geometry">
            <mxPoint as="offset" />
          </mxGeometry>
        </mxCell>
        <mxCell id="xXuklR_XLr2c3fxrAw7_-17" style="edgeStyle=orthogonalEdgeStyle;rounded=0;orthogonalLoop=1;jettySize=auto;html=1;exitX=0.5;exitY=0;exitDx=0;exitDy=0;entryX=0;entryY=0.5;entryDx=0;entryDy=0;" edge="1" parent="1" source="xXuklR_XLr2c3fxrAw7_-9" target="xXuklR_XLr2c3fxrAw7_-16">
          <mxGeometry relative="1" as="geometry" />
        </mxCell>
        <mxCell id="xXuklR_XLr2c3fxrAw7_-18" value="2.生成图表任务放到队列" style="edgeLabel;html=1;align=center;verticalAlign=middle;resizable=0;points=[];fontSize=13;" vertex="1" connectable="0" parent="xXuklR_XLr2c3fxrAw7_-17">
          <mxGeometry x="0.0834" relative="1" as="geometry">
            <mxPoint as="offset" />
          </mxGeometry>
        </mxCell>
        <mxCell id="xXuklR_XLr2c3fxrAw7_-9" value="Spring Boot业务后端" style="rounded=0;whiteSpace=wrap;html=1;" vertex="1" parent="1">
          <mxGeometry x="250" y="230" width="120" height="60" as="geometry" />
        </mxCell>
        <mxCell id="xXuklR_XLr2c3fxrAw7_-12" value="" style="image;html=1;image=img/lib/clip_art/computers/Database_128x128.png" vertex="1" parent="1">
          <mxGeometry x="270" y="545" width="80" height="80" as="geometry" />
        </mxCell>
        <mxCell id="xXuklR_XLr2c3fxrAw7_-21" style="edgeStyle=orthogonalEdgeStyle;rounded=0;orthogonalLoop=1;jettySize=auto;html=1;" edge="1" parent="1" source="xXuklR_XLr2c3fxrAw7_-16" target="xXuklR_XLr2c3fxrAw7_-20">
          <mxGeometry relative="1" as="geometry" />
        </mxCell>
        <mxCell id="xXuklR_XLr2c3fxrAw7_-22" value="3.一个一个取出进行处理" style="edgeLabel;html=1;align=center;verticalAlign=middle;resizable=0;points=[];fontSize=14;" vertex="1" connectable="0" parent="xXuklR_XLr2c3fxrAw7_-21">
          <mxGeometry x="-0.2203" relative="1" as="geometry">
            <mxPoint as="offset" />
          </mxGeometry>
        </mxCell>
        <mxCell id="xXuklR_XLr2c3fxrAw7_-16" value="任务队列" style="rounded=0;whiteSpace=wrap;html=1;" vertex="1" parent="1">
          <mxGeometry x="370" y="60" width="120" height="50" as="geometry" />
        </mxCell>
        <mxCell id="xXuklR_XLr2c3fxrAw7_-19" value="AI服务" style="rounded=0;whiteSpace=wrap;html=1;fontSize=14;" vertex="1" parent="1">
          <mxGeometry x="660" y="290" width="73" height="60" as="geometry" />
        </mxCell>
        <mxCell id="xXuklR_XLr2c3fxrAw7_-27" style="edgeStyle=orthogonalEdgeStyle;rounded=0;orthogonalLoop=1;jettySize=auto;html=1;exitX=0.5;exitY=1;exitDx=0;exitDy=0;entryX=0;entryY=0.5;entryDx=0;entryDy=0;" edge="1" parent="1" source="xXuklR_XLr2c3fxrAw7_-20" target="xXuklR_XLr2c3fxrAw7_-19">
          <mxGeometry relative="1" as="geometry" />
        </mxCell>
        <mxCell id="xXuklR_XLr2c3fxrAw7_-20" value="任务处理模块（线程）" style="rounded=0;whiteSpace=wrap;html=1;fontSize=12;" vertex="1" parent="1">
          <mxGeometry x="370" y="230" width="120" height="60" as="geometry" />
        </mxCell>
        <mxCell id="xXuklR_XLr2c3fxrAw7_-32" value="5.更新处理状态，如已完成" style="endArrow=classic;html=1;rounded=0;entryX=1;entryY=0.5;entryDx=0;entryDy=0;fontSize=13;" edge="1" parent="1" target="xXuklR_XLr2c3fxrAw7_-12">
          <mxGeometry width="50" height="50" relative="1" as="geometry">
            <mxPoint x="520" y="320" as="sourcePoint" />
            <mxPoint x="340" y="360" as="targetPoint" />
            <Array as="points">
              <mxPoint x="510" y="545" />
            </Array>
          </mxGeometry>
        </mxCell>
        <mxCell id="xXuklR_XLr2c3fxrAw7_-35" value="" style="endArrow=classic;html=1;rounded=0;exitX=0.5;exitY=0;exitDx=0;exitDy=0;entryX=1;entryY=0.5;entryDx=0;entryDy=0;" edge="1" parent="1" source="xXuklR_XLr2c3fxrAw7_-19" target="xXuklR_XLr2c3fxrAw7_-20">
          <mxGeometry width="50" height="50" relative="1" as="geometry">
            <mxPoint x="390" y="390" as="sourcePoint" />
            <mxPoint x="440" y="340" as="targetPoint" />
            <Array as="points">
              <mxPoint x="697" y="260" />
              <mxPoint x="600" y="260" />
              <mxPoint x="520" y="260" />
            </Array>
          </mxGeometry>
        </mxCell>
        <mxCell id="xXuklR_XLr2c3fxrAw7_-36" value="&lt;span style=&quot;font-size: 14px;&quot;&gt;4.异步生成图表和分析结果&lt;/span&gt;" style="edgeLabel;html=1;align=center;verticalAlign=middle;resizable=0;points=[];" vertex="1" connectable="0" parent="xXuklR_XLr2c3fxrAw7_-35">
          <mxGeometry x="-0.0313" y="2" relative="1" as="geometry">
            <mxPoint as="offset" />
          </mxGeometry>
        </mxCell>
      </root>
    </mxGraphModel>
  </diagram>
</mxfile>
